<svg width="174" height="76" viewBox="0 0 174 76" fill="none" xmlns="http://www.w3.org/2000/svg">
    <path d="M164.046 40.7749C163.801 40.7749 163.552 40.8136 163.306 40.8976C162.721 41.0949 162.249 41.5096 161.974 42.0629C161.701 42.6176 161.66 43.2442 161.857 43.8296C162.056 44.4149 162.469 44.8882 163.024 45.1616C163.577 45.4362 164.204 45.4776 164.79 45.2789C165.998 44.8709 166.648 43.5549 166.24 42.3469C165.913 41.3842 165.012 40.7749 164.046 40.7749ZM164.046 45.6709C163.654 45.6709 163.265 45.5802 162.905 45.4016C162.286 45.0962 161.824 44.5682 161.604 43.9162C161.382 43.2629 161.429 42.5629 161.734 41.9442C162.04 41.3269 162.568 40.8642 163.221 40.6429C164.569 40.1869 166.037 40.9136 166.493 42.2616C166.949 43.6096 166.224 45.0776 164.876 45.5336C164.604 45.6256 164.325 45.6709 164.046 45.6709Z"
          fill="#FFFFFF"/>
    <path d="M163.575 42.9997H163.91C164.246 42.9997 164.415 42.8624 164.415 42.5864C164.415 42.4464 164.373 42.3504 164.287 42.2957C164.201 42.2424 164.075 42.2157 163.91 42.2157H163.575V42.9997ZM164.458 44.3757L163.934 43.4091H163.575V44.3757H163.059V41.8011H163.958C164.091 41.8011 164.218 41.8144 164.337 41.8411C164.454 41.8677 164.557 41.9104 164.643 41.9704C164.73 42.0317 164.798 42.1117 164.849 42.2117C164.898 42.3117 164.923 42.4357 164.923 42.5864C164.923 42.7757 164.879 42.9304 164.791 43.0504C164.703 43.1717 164.583 43.2584 164.43 43.3117L165.038 44.3757H164.458Z"
          fill="#FFFFFF"/>
    <path d="M172.473 16.9319C172.166 17.4879 171.661 17.8906 171.052 18.0666L164.742 19.8906C163.716 20.188 163.037 21.1373 163.092 22.1999C163.106 22.4706 163.113 22.7466 163.113 23.0213C163.113 26.3533 162.078 29.5319 160.118 32.2146C160.11 32.2253 160.104 32.2346 160.097 32.2453C160.086 32.2586 160.074 32.2733 160.064 32.2879L159.736 32.7373C159.373 33.2346 158.668 34.2013 157.296 36.0839C156.333 37.4039 155.789 38.7346 155.502 39.6186C155.501 39.6239 155.497 39.6346 155.482 39.6413C155.469 39.6466 155.458 39.6413 155.454 39.6399C154.493 39.1613 153.125 38.8986 151.388 38.8586C147.808 38.7759 146.326 38.5786 146.312 38.5759L146.274 38.5719C138.088 37.9359 131.914 31.2506 131.914 23.0213C131.914 14.42 138.912 7.42128 147.513 7.42128C152.788 7.42128 157.666 10.0573 160.564 14.4719C161.118 15.3159 162.137 15.696 163.098 15.4186L169.733 13.5013C169.948 13.4386 170.17 13.4066 170.394 13.4066C171.445 13.4066 172.384 14.1133 172.676 15.124C172.852 15.7346 172.78 16.3759 172.473 16.9319ZM169.265 23.0213C169.265 30.8 164.558 34.9866 156.965 39.2146C157.253 38.5066 157.677 37.6559 158.293 36.8119C160.682 33.5346 161.049 33.0333 161.105 32.9573C161.108 32.9546 161.11 32.9506 161.113 32.9466L161.485 32.4453L161.477 32.4399L161.478 32.4386L161.473 32.4346C163.357 29.6506 164.349 26.4093 164.349 23.0213C164.349 22.7253 164.341 22.4266 164.326 22.1359C164.3 21.6493 164.613 21.2133 165.085 21.0773L169.045 19.9333C169.189 20.9426 169.265 21.9733 169.265 23.0213ZM159.089 46.6973C159.514 49.7146 158.152 52.2053 156.428 55.3586C155.736 56.6239 155.02 57.9333 154.344 59.4133C152.173 64.1733 150.869 69.6906 150.09 72.9866C150.009 73.3319 149.932 73.6546 149.861 73.9519C149.802 74.1946 149.605 74.2439 149.522 74.2533C149.448 74.2626 149.27 74.2613 149.153 74.0919C149.05 73.6466 148.578 71.6453 147.793 68.9866C148.504 68.6826 149.62 67.8879 149.921 65.4866C149.956 65.2186 149.992 64.9226 150.03 64.6053C150.389 61.6719 150.992 56.7639 152.157 52.4666C153.457 47.6719 155.345 43.2813 156.09 41.6306C157.006 42.4039 158.733 44.1666 159.089 46.6973ZM143.021 66.1479C142.477 64.2359 142.63 62.1333 143.126 59.6733C144.221 62.1266 145.292 65.0319 146.266 68.1999C146.185 68.2226 146.113 68.2386 146.072 68.2386C144.597 68.2386 143.513 67.8839 143.021 66.1479ZM147.432 67.7893C146.232 63.8933 144.934 60.5053 143.572 57.7053C143.893 56.4466 144.396 55.0706 145.097 53.5373C145.114 53.4986 145.13 53.4613 145.149 53.4226C145.154 53.4093 145.161 53.3959 145.168 53.3826C145.418 52.8386 145.694 52.2773 145.994 51.6933C147.204 49.3479 148.768 47.2079 150.642 45.3333C150.732 45.2453 150.821 45.1573 150.909 45.0706C150.965 45.0159 151.021 44.9639 151.077 44.9106C151.112 44.8786 151.145 44.8453 151.18 44.8133C151.228 44.7666 151.276 44.7226 151.324 44.6786C151.364 44.6413 151.405 44.6026 151.445 44.5666C151.49 44.5239 151.534 44.4839 151.58 44.4439C151.622 44.4053 151.665 44.3666 151.708 44.3279C151.75 44.2906 151.792 44.2546 151.834 44.2173C151.878 44.1786 151.922 44.1386 151.968 44.0999C152.008 44.0653 152.046 44.0319 152.086 43.9973C152.132 43.9586 152.177 43.9199 152.222 43.8813C152.261 43.8493 152.3 43.8173 152.338 43.7853C152.384 43.7479 152.429 43.7093 152.474 43.6719C152.512 43.6413 152.548 43.6119 152.585 43.5813C152.63 43.5453 152.676 43.5079 152.721 43.4719C152.757 43.4426 152.792 43.4159 152.828 43.3866C152.872 43.3519 152.918 43.3159 152.962 43.2799C152.997 43.2533 153.03 43.2279 153.065 43.2013C153.109 43.1666 153.154 43.1319 153.198 43.0986C153.232 43.0733 153.265 43.0479 153.297 43.0239C153.341 42.9906 153.385 42.9573 153.428 42.9253C153.461 42.9013 153.492 42.8786 153.524 42.8546C153.566 42.8239 153.61 42.7919 153.652 42.7613C153.682 42.7386 153.713 42.7173 153.744 42.6959C153.785 42.6653 153.828 42.6346 153.869 42.6053C153.898 42.5853 153.926 42.5653 153.956 42.5453C153.997 42.5159 154.038 42.4879 154.078 42.4599C154.106 42.4399 154.134 42.4213 154.161 42.4026C154.201 42.3759 154.241 42.3479 154.281 42.3213C154.306 42.3039 154.333 42.2866 154.358 42.2693C154.397 42.2426 154.437 42.2173 154.474 42.1919C154.481 42.1879 154.489 42.1826 154.496 42.1786C153.585 44.2853 152.08 48.0319 150.965 52.1426C149.776 56.5253 149.168 61.4893 148.804 64.4546C148.765 64.7719 148.729 65.0653 148.696 65.3333C148.492 66.9533 147.9 67.5413 147.432 67.7893ZM139.46 51.1573C135.108 44.6999 127.824 33.8906 126.664 29.4759L126.657 29.4519C126.648 29.4199 125.693 26.272 125.693 23.0213C125.693 11.008 135.465 1.23595 147.478 1.23595C155.9 1.23595 163.22 6.03862 166.844 13.0493L162.756 14.2319C162.317 14.3586 161.852 14.1826 161.597 13.7933C158.47 9.02928 153.205 6.18528 147.513 6.18528C138.23 6.18528 130.678 13.7386 130.678 23.0213C130.678 27.2986 132.273 31.3706 135.168 34.4866C138.042 37.5826 141.946 39.4706 146.162 39.8026C146.356 39.8279 147.873 40.0133 151.36 40.0933C153.025 40.1319 154.042 40.3853 154.644 40.6293C154.477 40.7266 154.293 40.8399 154.092 40.9679C154.089 40.9693 154.086 40.9706 154.084 40.9733C154.03 41.0066 153.976 41.0426 153.92 41.0786C153.914 41.0826 153.909 41.0853 153.904 41.0893C153.848 41.1253 153.792 41.1613 153.736 41.1999C153.729 41.2039 153.722 41.2079 153.716 41.2119C153.66 41.2506 153.601 41.2893 153.542 41.3293C153.536 41.3333 153.53 41.3373 153.524 41.3413C153.464 41.3826 153.402 41.4239 153.34 41.4679C153.337 41.4693 153.334 41.4719 153.332 41.4746C153.005 41.7013 152.652 41.9573 152.28 42.2453C152.27 42.2533 152.262 42.2599 152.253 42.2666C152.196 42.3119 152.137 42.3573 152.08 42.4039C152.056 42.4226 152.032 42.4413 152.008 42.4599C151.956 42.5013 151.902 42.5439 151.85 42.5866C151.82 42.6119 151.789 42.6359 151.758 42.6613C151.709 42.7013 151.658 42.7439 151.608 42.7853C151.573 42.8146 151.538 42.8426 151.504 42.8719C151.456 42.9119 151.406 42.9533 151.358 42.9946C151.321 43.0266 151.282 43.0586 151.245 43.0919C151.197 43.1319 151.15 43.1733 151.102 43.2146C151.062 43.2506 151.022 43.2853 150.982 43.3213C150.936 43.3626 150.889 43.4039 150.842 43.4453C150.8 43.4839 150.757 43.5226 150.714 43.5599C150.669 43.6026 150.624 43.6426 150.577 43.6853C150.533 43.7266 150.488 43.7693 150.442 43.8106C150.398 43.8519 150.354 43.8933 150.309 43.9346C150.261 43.9799 150.213 44.0266 150.165 44.0733C150.122 44.1146 150.081 44.1533 150.038 44.1946C149.981 44.2506 149.922 44.3093 149.865 44.3666C149.833 44.3973 149.801 44.4279 149.769 44.4599C147.804 46.4253 146.164 48.6679 144.897 51.1279C144.825 51.2666 144.754 51.4053 144.686 51.5413C144.665 51.5826 144.645 51.6226 144.625 51.6626C144.574 51.7639 144.524 51.8653 144.474 51.9653C144.456 52.0053 144.436 52.0453 144.417 52.0839C144.352 52.2173 144.288 52.3506 144.225 52.4813C144.22 52.4919 144.216 52.5026 144.21 52.5133C144.153 52.6346 144.097 52.7546 144.041 52.8746C144.022 52.9146 144.005 52.9546 143.986 52.9946C143.942 53.0893 143.9 53.1839 143.858 53.2773C143.841 53.3159 143.824 53.3533 143.806 53.3919C143.752 53.5173 143.697 53.6426 143.644 53.7666C143.636 53.7839 143.628 53.8026 143.62 53.8213C143.574 53.9279 143.529 54.0333 143.486 54.1386C143.469 54.1786 143.453 54.2186 143.436 54.2586C143.4 54.3479 143.364 54.4359 143.329 54.5239C143.314 54.5599 143.3 54.5973 143.285 54.6333C143.238 54.7519 143.193 54.8693 143.149 54.9853C143.14 55.0093 143.13 55.0333 143.122 55.0559C143.086 55.1519 143.05 55.2466 143.017 55.3399C143.002 55.3799 142.988 55.4199 142.974 55.4586C142.944 55.5413 142.916 55.6239 142.886 55.7066C142.874 55.7413 142.862 55.7773 142.85 55.8133C142.813 55.9199 142.778 56.0253 142.744 56.1306C142.144 55.1399 140.974 53.4053 139.46 51.1573ZM173.862 14.7813C173.418 13.2453 171.992 12.1719 170.394 12.1719C170.053 12.1719 169.714 12.2199 169.389 12.3146L168.066 12.6973C166.973 10.5226 165.528 8.51329 163.757 6.74262C159.409 2.39462 153.628 -5.14492e-05 147.478 -5.14492e-05C141.329 -5.14492e-05 135.548 2.39462 131.2 6.74262C126.852 11.0906 124.457 16.872 124.457 23.0213C124.457 26.384 125.394 29.5439 125.473 29.8013C126.694 34.4253 133.758 44.9093 138.434 51.8479C140.189 54.4519 141.576 56.5079 141.958 57.2426C142.058 57.4346 142.162 57.6373 142.265 57.8466C141.474 61.1759 141.106 63.9306 141.832 66.4853C142.593 69.1639 144.616 69.4746 146.072 69.4746C146.242 69.4746 146.425 69.4386 146.622 69.3826C147.489 72.3239 147.964 74.4319 147.969 74.4546L147.986 74.5306L148.022 74.6013C148.305 75.1559 148.86 75.4919 149.469 75.4919C149.536 75.4919 149.601 75.4879 149.668 75.4799C150.354 75.3986 150.901 74.9119 151.062 74.2413C151.134 73.9426 151.21 73.6173 151.292 73.2706C152.061 70.0186 153.348 64.5746 155.468 59.9253C156.125 58.4866 156.829 57.1973 157.512 55.9506C159.273 52.7293 160.794 49.9479 160.313 46.5253C159.898 43.5826 157.97 41.5919 156.901 40.6933C157.116 40.5546 157.328 40.4266 157.541 40.3079C162.093 37.7759 165.021 35.5479 167.036 33.0839C169.366 30.2346 170.5 26.944 170.5 23.0213C170.5 21.86 170.414 20.7133 170.246 19.5853L171.394 19.2533C172.321 18.9866 173.089 18.3733 173.554 17.5293C174.021 16.684 174.13 15.708 173.862 14.7813Z"
          fill="#FFFFFF"/>
    <path d="M147.401 34.513C141.064 34.513 135.909 29.357 135.909 23.021C135.909 16.6837 141.064 11.529 147.401 11.529C153.738 11.529 158.893 16.6837 158.893 23.021C158.893 29.357 153.738 34.513 147.401 34.513ZM147.401 10.293C140.384 10.293 134.673 16.0024 134.673 23.021C134.673 30.0384 140.384 35.749 147.401 35.749C154.418 35.749 160.129 30.0384 160.129 23.021C160.129 16.0024 154.418 10.293 147.401 10.293Z"
          fill="#FFFFFF"/>
    <path d="M49.0933 51.9536C48.9533 51.9536 48.8227 51.999 48.7 52.0896C48.5787 52.1803 48.4733 52.3043 48.3853 52.4616H48.3693L48.3333 52.015H47.9733V54.511H48.4107V52.9136C48.496 52.7016 48.5947 52.555 48.708 52.4723C48.8213 52.3896 48.9307 52.3496 49.0373 52.3496C49.092 52.3496 49.1347 52.351 49.168 52.3563C49.2 52.3616 49.2387 52.3736 49.2827 52.3896L49.3653 52.0056C49.324 51.9843 49.2827 51.971 49.2427 51.9643C49.2013 51.9576 49.152 51.9536 49.0933 51.9536ZM45.74 53.0736C45.768 52.827 45.8467 52.6363 45.9787 52.5003C46.1107 52.3656 46.2667 52.2976 46.4493 52.2976C46.644 52.2976 46.7933 52.363 46.896 52.495C46.9987 52.627 47.0493 52.8203 47.0493 53.0736H45.74ZM47.176 52.2723C47.092 52.1696 46.9867 52.091 46.8627 52.0363C46.7373 51.9816 46.5947 51.9536 46.4333 51.9536C46.2893 51.9536 46.1507 51.9843 46.0173 52.043C45.884 52.103 45.7653 52.1896 45.66 52.303C45.556 52.4163 45.472 52.5536 45.4093 52.7163C45.3453 52.879 45.3147 53.063 45.3147 53.2683C45.3147 53.4736 45.3453 53.6563 45.4067 53.8176C45.468 53.979 45.5533 54.115 45.66 54.2283C45.768 54.3416 45.8947 54.427 46.04 54.4856C46.1867 54.543 46.3427 54.5723 46.5107 54.5723C46.6813 54.5723 46.8333 54.547 46.9653 54.4976C47.0973 54.4483 47.2213 54.387 47.3373 54.315L47.1827 54.0283C47.0907 54.0936 46.9933 54.143 46.8933 54.1776C46.792 54.211 46.6813 54.2283 46.5613 54.2283C46.3253 54.2283 46.1347 54.151 45.9893 53.995C45.844 53.839 45.7613 53.6296 45.74 53.3656H47.4147C47.4213 53.335 47.4267 53.299 47.4293 53.2576C47.4333 53.2163 47.4347 53.1723 47.4347 53.1243C47.4347 52.947 47.412 52.7856 47.368 52.6416C47.324 52.4976 47.2587 52.375 47.176 52.2723ZM44.0147 51.9536C43.84 51.9536 43.6893 51.9923 43.56 52.0696C43.432 52.1456 43.308 52.243 43.188 52.359L43.204 51.8456V50.8603H42.7667V54.511H43.204V52.7083C43.3307 52.5856 43.4427 52.491 43.54 52.4256C43.6373 52.3616 43.7493 52.3283 43.876 52.3283C44.044 52.3283 44.164 52.3803 44.236 52.483C44.308 52.5856 44.344 52.7523 44.344 52.9856V54.511H44.78V52.9296C44.78 52.607 44.7187 52.3643 44.5973 52.2003C44.476 52.0363 44.2813 51.9536 44.0147 51.9536ZM42.1507 54.1976C42.1 54.211 42.0493 54.2176 42.0013 54.2176C41.8587 54.2176 41.7587 54.1776 41.704 54.095C41.6493 54.0123 41.6213 53.895 41.6213 53.7403V52.3643H42.2947V52.015H41.6213V51.3163H41.2573L41.2013 52.015L40.8107 52.0363V52.3643H41.18V53.735C41.18 53.859 41.1933 53.971 41.2187 54.075C41.244 54.1776 41.2853 54.2656 41.3427 54.339C41.3987 54.4123 41.4733 54.4696 41.5653 54.511C41.6573 54.5523 41.7707 54.5723 41.904 54.5723C41.9827 54.5723 42.0627 54.5643 42.1427 54.547C42.224 54.5296 42.3 54.507 42.372 54.4803L42.284 54.151C42.2467 54.1683 42.2027 54.1843 42.1507 54.1976ZM38.8747 53.0736C38.9027 52.827 38.9813 52.6363 39.1133 52.5003C39.2453 52.3656 39.4013 52.2976 39.584 52.2976C39.7787 52.2976 39.928 52.363 40.0307 52.495C40.1333 52.627 40.184 52.8203 40.184 53.0736H38.8747ZM40.3107 52.2723C40.2267 52.1696 40.1213 52.091 39.9973 52.0363C39.872 51.9816 39.7293 51.9536 39.568 51.9536C39.424 51.9536 39.2853 51.9843 39.152 52.043C39.0187 52.103 38.9 52.1896 38.7947 52.303C38.6907 52.4163 38.6067 52.5536 38.544 52.7163C38.48 52.879 38.448 53.063 38.448 53.2683C38.448 53.4736 38.48 53.6563 38.5413 53.8176C38.6027 53.979 38.688 54.115 38.7947 54.2283C38.9027 54.3416 39.0293 54.427 39.1747 54.4856C39.3213 54.543 39.4773 54.5723 39.6453 54.5723C39.816 54.5723 39.968 54.547 40.1 54.4976C40.2307 54.4483 40.356 54.387 40.472 54.315L40.3173 54.0283C40.2253 54.0936 40.128 54.143 40.028 54.1776C39.9267 54.211 39.816 54.2283 39.696 54.2283C39.46 54.2283 39.2693 54.151 39.124 53.995C38.9787 53.839 38.896 53.6296 38.8747 53.3656H40.5493C40.556 53.335 40.5613 53.299 40.564 53.2576C40.568 53.2163 40.5693 53.1723 40.5693 53.1243C40.5693 52.947 40.5467 52.7856 40.5027 52.6416C40.4573 52.4976 40.3933 52.375 40.3107 52.2723ZM37.74 55.0416C37.7027 55.1016 37.6507 55.155 37.584 55.2016C37.516 55.2483 37.4347 55.2856 37.34 55.315C37.244 55.343 37.1373 55.3576 37.0213 55.3576C36.788 55.3576 36.6093 55.319 36.484 55.243C36.36 55.1656 36.2973 55.0616 36.2973 54.9323C36.2973 54.7776 36.3787 54.639 36.544 54.5163C36.6013 54.5336 36.6587 54.5443 36.716 54.5496C36.772 54.555 36.8253 54.5576 36.8773 54.5576H37.2987C37.4587 54.5576 37.5827 54.579 37.668 54.6216C37.7533 54.6643 37.796 54.743 37.796 54.8603C37.796 54.9216 37.7773 54.983 37.74 55.0416ZM36.5827 52.4136C36.6827 52.3123 36.8093 52.2616 36.96 52.2616C37.1027 52.2616 37.2253 52.3136 37.3267 52.4163C37.428 52.519 37.4787 52.6603 37.4787 52.8416C37.4787 53.027 37.428 53.171 37.3267 53.2736C37.2253 53.3763 37.1027 53.427 36.96 53.427C36.812 53.427 36.6867 53.3763 36.584 53.2736C36.4813 53.171 36.4307 53.027 36.4307 52.8416C36.4307 52.6576 36.4813 52.5136 36.5827 52.4136ZM37.3493 54.1923H36.8667C36.696 54.1923 36.58 54.1683 36.52 54.1176C36.46 54.0683 36.4307 54.0043 36.4307 53.9256C36.4307 53.8563 36.444 53.8016 36.472 53.759C36.4987 53.7163 36.536 53.675 36.584 53.6376C36.6427 53.6656 36.704 53.6843 36.7693 53.6963C36.8347 53.7083 36.8973 53.715 36.96 53.715C37.0867 53.715 37.2053 53.695 37.316 53.6563C37.428 53.6163 37.524 53.5603 37.6067 53.487C37.688 53.4123 37.7533 53.323 37.7987 53.2163C37.8453 53.111 37.868 52.991 37.868 52.8576C37.868 52.7483 37.8507 52.6496 37.8147 52.5616C37.7787 52.475 37.732 52.4016 37.6733 52.3443H38.1813V52.015H37.304C37.2587 51.9976 37.208 51.9843 37.1493 51.971C37.0907 51.959 37.028 51.9536 36.96 51.9536C36.8333 51.9536 36.712 51.9736 36.5973 52.015C36.4827 52.0563 36.3827 52.115 36.2973 52.1923C36.212 52.2696 36.1427 52.363 36.092 52.4723C36.04 52.5816 36.0147 52.7056 36.0147 52.8416C36.0147 52.9963 36.0467 53.1296 36.112 53.243C36.1773 53.355 36.2507 53.4456 36.3333 53.515V53.535C36.268 53.583 36.2067 53.6456 36.148 53.723C36.0893 53.799 36.0613 53.8896 36.0613 53.9923C36.0613 54.091 36.0813 54.175 36.1227 54.2416C36.164 54.3083 36.216 54.3616 36.2813 54.403V54.423C36.1653 54.5016 36.076 54.5896 36.0147 54.6856C35.9533 54.7816 35.9227 54.8816 35.9227 54.9883C35.9227 55.0976 35.9467 55.1936 35.9973 55.2763C36.0467 55.3576 36.116 55.427 36.2067 55.4843C36.2973 55.5403 36.4067 55.583 36.5333 55.6123C36.66 55.6416 36.8 55.6563 36.9547 55.6563C37.1493 55.6563 37.3253 55.6323 37.4813 55.587C37.636 55.5403 37.7693 55.479 37.8787 55.4016C37.988 55.3243 38.0733 55.2336 38.1333 55.1296C38.192 55.0256 38.2227 54.9136 38.2227 54.7936C38.2227 54.5803 38.1493 54.4283 38.004 54.3336C37.8587 54.239 37.6413 54.1923 37.3493 54.1923ZM35.0187 53.651C34.984 53.7656 34.936 53.8643 34.872 53.9456C34.8093 54.0283 34.7333 54.0923 34.6467 54.139C34.5587 54.1843 34.4627 54.2083 34.356 54.2083C34.2493 54.2083 34.1533 54.1843 34.0653 54.139C33.9787 54.0923 33.904 54.0283 33.8427 53.9456C33.7813 53.8643 33.7333 53.7656 33.6987 53.651C33.664 53.5363 33.648 53.4083 33.648 53.2683C33.648 53.1243 33.664 52.995 33.6987 52.8776C33.7333 52.7616 33.7813 52.6616 33.8427 52.5803C33.904 52.4976 33.9787 52.4336 34.0653 52.387C34.1533 52.3416 34.2493 52.3176 34.356 52.3176C34.4627 52.3176 34.5587 52.3416 34.6467 52.387C34.7333 52.4336 34.8093 52.4976 34.872 52.5803C34.936 52.6616 34.984 52.7616 35.0187 52.8776C35.052 52.995 35.0693 53.1243 35.0693 53.2683C35.0693 53.4083 35.052 53.5363 35.0187 53.651ZM35.168 52.2976C35.0613 52.1843 34.9373 52.099 34.7973 52.0403C34.6573 51.983 34.5107 51.9536 34.356 51.9536C34.2027 51.9536 34.056 51.983 33.9173 52.0403C33.7787 52.099 33.656 52.1843 33.5493 52.2976C33.444 52.411 33.3587 52.5483 33.296 52.711C33.232 52.8736 33.2013 53.059 33.2013 53.2683C33.2013 53.4736 33.232 53.6576 33.296 53.8203C33.3587 53.983 33.444 54.1203 33.5493 54.231C33.656 54.3416 33.7787 54.427 33.9173 54.4856C34.056 54.543 34.2027 54.5723 34.356 54.5723C34.5107 54.5723 34.6573 54.543 34.7973 54.4856C34.9373 54.427 35.0613 54.3416 35.168 54.231C35.2733 54.1203 35.3587 53.983 35.4213 53.8203C35.4853 53.6576 35.516 53.4736 35.516 53.2683C35.516 53.059 35.4853 52.8736 35.4213 52.711C35.3587 52.5483 35.2733 52.411 35.168 52.2976ZM32.764 54.1976C32.7133 54.211 32.6627 54.2176 32.6147 54.2176C32.472 54.2176 32.372 54.1776 32.3173 54.095C32.2627 54.0123 32.236 53.895 32.236 53.7403V52.3643H32.908V52.015H32.236V51.3163H31.8707L31.8147 52.015L31.424 52.0363V52.3643H31.7933V53.735C31.7933 53.859 31.8067 53.971 31.832 54.075C31.8573 54.1776 31.8987 54.2656 31.956 54.339C32.012 54.4123 32.0867 54.4696 32.1787 54.511C32.2707 54.5523 32.384 54.5723 32.5173 54.5723C32.596 54.5723 32.676 54.5643 32.756 54.547C32.8373 54.5296 32.9133 54.507 32.9853 54.4803L32.8973 54.151C32.86 54.1683 32.816 54.1843 32.764 54.1976ZM30.3147 53.3216C30.2427 53.2656 30.1613 53.2176 30.0707 53.1776C29.98 53.139 29.8907 53.1016 29.8013 53.0683C29.7293 53.0443 29.6613 53.019 29.596 52.9936C29.5307 52.9683 29.4733 52.939 29.4213 52.9056C29.3707 52.8736 29.3293 52.8363 29.2987 52.7936C29.2667 52.751 29.252 52.7003 29.252 52.6416C29.252 52.5496 29.288 52.4683 29.36 52.3976C29.432 52.3283 29.5453 52.2923 29.6987 52.2923C29.812 52.2923 29.9147 52.3136 30.0067 52.3536C30.0987 52.395 30.188 52.447 30.2733 52.5083L30.4787 52.2363C30.38 52.1576 30.264 52.091 30.132 52.0363C30.0013 51.9816 29.856 51.9536 29.6987 51.9536C29.428 51.9536 29.2173 52.0216 29.064 52.1563C28.912 52.2923 28.836 52.4616 28.836 52.667C28.836 52.7736 28.8587 52.8643 28.9027 52.939C28.9467 53.015 29.004 53.0803 29.0747 53.135C29.1453 53.1896 29.224 53.2363 29.3107 53.2763C29.3987 53.315 29.4867 53.3523 29.576 53.3856C29.644 53.4136 29.712 53.4416 29.7787 53.4683C29.8453 53.4963 29.9053 53.527 29.96 53.563C30.0147 53.599 30.0587 53.6403 30.092 53.687C30.124 53.7323 30.14 53.787 30.14 53.8483C30.14 53.9576 30.1013 54.0496 30.0253 54.123C29.948 54.1963 29.8267 54.2336 29.6627 54.2336C29.5093 54.2336 29.3747 54.207 29.26 54.1536C29.1453 54.1003 29.0333 54.0296 28.9227 53.9403L28.708 54.2283C28.828 54.3283 28.968 54.4096 29.1293 54.475C29.2893 54.5403 29.4613 54.5723 29.6427 54.5723C29.7893 54.5723 29.92 54.5523 30.0347 54.5136C30.1493 54.4736 30.2453 54.4203 30.3227 54.3536C30.4 54.287 30.4587 54.2083 30.5 54.1176C30.5413 54.027 30.5613 53.9323 30.5613 53.8336C30.5613 53.7136 30.5387 53.6123 30.492 53.5296C30.4453 53.4483 30.3867 53.379 30.3147 53.3216ZM27.732 53.3856C27.7013 53.4963 27.668 53.611 27.6347 53.731C27.6 53.8496 27.5653 53.9683 27.532 54.0843H27.5107C27.4627 53.9683 27.42 53.8496 27.38 53.7283C27.3413 53.6056 27.3027 53.4923 27.2653 53.3856L26.7667 52.015H26.3147L27.3107 54.511L27.26 54.6963C27.208 54.8496 27.1387 54.975 27.0493 55.0736C26.96 55.171 26.844 55.219 26.7 55.219C26.6627 55.219 26.628 55.215 26.5973 55.207C26.5667 55.1976 26.5387 55.1896 26.5147 55.183L26.428 55.5376C26.5093 55.5723 26.608 55.5896 26.72 55.5896C26.8467 55.5896 26.9587 55.567 27.0547 55.523C27.1507 55.4776 27.236 55.4163 27.3107 55.3376C27.3867 55.259 27.452 55.1656 27.508 55.0603C27.5653 54.9536 27.6173 54.8376 27.6653 54.711L28.6053 52.015H28.1787L27.732 53.3856ZM25.5133 53.9003C25.3933 54.003 25.2813 54.0816 25.1773 54.139C25.0733 54.195 24.9613 54.223 24.8413 54.223C24.7213 54.223 24.62 54.1936 24.5387 54.1336C24.456 54.0736 24.4147 53.971 24.4147 53.8283C24.4147 53.7523 24.4333 53.683 24.472 53.6176C24.5093 53.5523 24.5707 53.495 24.656 53.4456C24.7413 53.3963 24.8547 53.3523 24.9947 53.315C25.136 53.2763 25.308 53.2443 25.5133 53.2163V53.9003ZM25.7453 52.231C25.6733 52.1416 25.5827 52.0736 25.472 52.0256C25.3627 51.9776 25.232 51.9536 25.0773 51.9536C24.872 51.9536 24.6867 51.9883 24.5227 52.0563C24.3587 52.1243 24.216 52.199 24.096 52.2776L24.2653 52.575C24.3653 52.5096 24.4773 52.4496 24.6027 52.3923C24.7267 52.3363 24.8613 52.3083 25.0053 52.3083C25.104 52.3083 25.1867 52.3256 25.252 52.3616C25.3173 52.3976 25.3693 52.4443 25.408 52.5003C25.448 52.5576 25.4747 52.623 25.4907 52.6976C25.5067 52.7736 25.5133 52.8483 25.5133 52.9243C24.9827 52.983 24.596 53.0856 24.3507 53.235C24.1053 53.3843 23.984 53.5923 23.984 53.859C23.984 53.971 24.0027 54.0723 24.04 54.1616C24.0773 54.251 24.1293 54.3256 24.1973 54.387C24.264 54.4496 24.3413 54.495 24.4307 54.5256C24.5187 54.5576 24.6173 54.5723 24.7227 54.5723C24.88 54.5723 25.0253 54.5376 25.16 54.467C25.2933 54.3976 25.42 54.3136 25.54 54.2176H25.5547L25.5907 54.511H25.9507V52.9803C25.9507 52.823 25.9333 52.6816 25.9013 52.555C25.8693 52.4283 25.8173 52.3203 25.7453 52.231ZM22.8893 53.4483C22.8627 53.5643 22.836 53.679 22.8133 53.7923C22.7893 53.9043 22.7653 54.0216 22.7413 54.1416H22.72C22.6893 54.0216 22.66 53.9043 22.6307 53.7923C22.6013 53.679 22.572 53.5643 22.54 53.4483L22.16 52.015H21.7347L21.3547 53.4483C21.324 53.5643 21.2947 53.679 21.2667 53.7923C21.24 53.9043 21.2147 54.0216 21.1907 54.1416H21.1693C21.1427 54.0216 21.116 53.9043 21.092 53.7923C21.068 53.679 21.0427 53.5643 21.016 53.4483L20.656 52.015H20.2093L20.9027 54.511H21.4053L21.7547 53.191C21.7893 53.071 21.8187 52.9536 21.8453 52.8363C21.8707 52.7203 21.8973 52.5976 21.924 52.467H21.9453C21.976 52.5976 22.0027 52.719 22.024 52.8336C22.0467 52.9496 22.0773 53.0656 22.1147 53.1856L22.464 54.511H22.9973L23.6653 52.015H23.2493L22.8893 53.4483ZM18.54 54.2083H18.504C18.4733 54.2083 18.4467 54.195 18.4227 54.1696C18.3987 54.1443 18.3867 54.099 18.3867 54.0336V50.8603H17.9507V54.003C17.9507 54.1843 17.9853 54.3243 18.0547 54.423C18.1253 54.523 18.244 54.5723 18.412 54.5723C18.4707 54.5723 18.5187 54.5683 18.556 54.5616C18.5933 54.555 18.628 54.5443 18.6587 54.531L18.5973 54.1976C18.5693 54.2043 18.5507 54.2083 18.54 54.2083ZM17.2933 54.2083H17.2573C17.2253 54.2083 17.1987 54.195 17.1747 54.1696C17.1507 54.1443 17.1387 54.099 17.1387 54.0336V50.8603H16.7027V54.003C16.7027 54.1843 16.7373 54.3243 16.808 54.423C16.8773 54.523 16.996 54.5723 17.164 54.5723C17.2227 54.5723 17.2707 54.5683 17.308 54.5616C17.3453 54.555 17.38 54.5443 17.4107 54.531L17.3493 54.1976C17.3213 54.2043 17.3027 54.2083 17.2933 54.2083ZM15.4653 53.1403H14.448L14.6173 52.6363C14.676 52.4483 14.732 52.2616 14.7867 52.0763C14.8413 51.8923 14.8947 51.7003 14.9467 51.5016H14.9667C15.0213 51.6963 15.0747 51.8883 15.128 52.075C15.1813 52.2603 15.2387 52.4483 15.3 52.6363L15.4653 53.1403ZM14.7093 51.1416L13.5747 54.511H14.0213L14.3507 53.499H15.5627L15.8853 54.511H16.348L15.2133 51.1416H14.7093ZM114.831 38.0603C114.285 37.4003 113.619 36.8723 112.832 36.4776C112.043 36.0843 111.011 35.655 109.737 35.191C108.601 34.7736 107.703 34.4083 107.041 34.0963C106.381 33.783 105.831 33.383 105.391 32.8963C104.949 32.4096 104.729 31.807 104.729 31.087C104.729 30.1603 105.055 29.4536 105.703 28.9656C106.352 28.479 107.244 28.2363 108.381 28.2363C110.721 28.2363 112.692 29.5696 114.292 32.235H114.813V28.2003H114.292C114.292 28.363 114.245 28.503 114.152 28.619C114.06 28.735 113.92 28.7923 113.736 28.7923C113.619 28.7923 113.26 28.711 112.657 28.5483C110.756 27.9923 109.203 27.7136 107.999 27.7136C105.959 27.7136 104.3 28.1896 103.025 29.1403C101.751 30.091 101.113 31.355 101.113 32.931C101.113 34.1136 101.415 35.087 102.017 35.8523C102.62 36.6176 103.344 37.203 104.191 37.6083C105.037 38.015 106.132 38.4496 107.476 38.9123C108.983 39.4003 110.101 39.8696 110.832 40.3216C111.563 40.7736 111.927 41.4163 111.927 42.251C111.927 43.1563 111.608 43.8456 110.971 44.3203C110.333 44.7963 109.447 45.0336 108.311 45.0336C106.781 45.0336 105.448 44.6283 104.312 43.8163C103.176 43.0056 102.319 41.8456 101.74 40.339H101.217V45.103H101.74C101.763 44.987 101.832 44.8723 101.948 44.755C102.064 44.6403 102.215 44.5816 102.4 44.5816C102.585 44.5816 102.979 44.663 103.583 44.8256C105.089 45.3123 106.665 45.555 108.311 45.555C110.513 45.555 112.287 45.0976 113.631 44.1816C114.975 43.2656 115.648 42.043 115.648 40.5123C115.648 39.539 115.375 38.7216 114.831 38.0603ZM87.8133 37.6083C88.66 38.015 89.7547 38.4496 91.1 38.9123C92.6067 39.4003 93.7253 39.8696 94.4547 40.3216C95.1853 40.7736 95.5507 41.4163 95.5507 42.251C95.5507 43.1563 95.232 43.8456 94.5947 44.3203C93.956 44.7963 93.0693 45.0336 91.9347 45.0336C90.404 45.0336 89.0707 44.6283 87.936 43.8163C86.8 43.0056 85.9413 41.8456 85.3627 40.339H84.8413V45.103H85.3627C85.3853 44.987 85.4547 44.8723 85.5707 44.755C85.6867 44.6403 85.8373 44.5816 86.024 44.5816C86.208 44.5816 86.6027 44.663 87.2053 44.8256C88.712 45.3123 90.288 45.555 91.9347 45.555C94.136 45.555 95.9093 45.0976 97.2547 44.1816C98.5987 43.2656 99.2707 42.043 99.2707 40.5123C99.2707 39.539 98.9987 38.7216 98.4533 38.0603C97.9093 37.4003 97.2427 36.8723 96.4547 36.4776C95.6667 36.0843 94.6347 35.655 93.36 35.191C92.224 34.7736 91.3253 34.4083 90.6653 34.0963C90.004 33.783 89.4533 33.383 89.0133 32.8963C88.5733 32.4096 88.3533 31.807 88.3533 31.087C88.3533 30.1603 88.6773 29.4536 89.3267 28.9656C89.9747 28.479 90.868 28.2363 92.004 28.2363C94.3453 28.2363 96.316 29.5696 97.9147 32.235H98.436V28.2003H97.9147C97.9147 28.363 97.868 28.503 97.776 28.619C97.6827 28.735 97.544 28.7923 97.3587 28.7923C97.2427 28.7923 96.8827 28.711 96.2813 28.5483C94.38 27.9923 92.8267 27.7136 91.6213 27.7136C89.5813 27.7136 87.924 28.1896 86.6493 29.1403C85.3747 30.091 84.7373 31.355 84.7373 32.931C84.7373 34.1136 85.0373 35.087 85.6413 35.8523C86.2427 36.6176 86.968 37.203 87.8133 37.6083ZM72.428 29.5923C72.9613 28.4323 73.796 27.8536 74.932 27.8536C76.068 27.8536 76.896 28.5203 77.4173 29.8523C77.94 31.187 78.2 33.2443 78.2 36.0256H71.664C71.64 35.795 71.628 35.435 71.628 34.9483C71.628 32.5363 71.8947 30.7523 72.428 29.5923ZM71.176 44.4083C72.4053 45.1723 73.8307 45.555 75.4533 45.555C77.3533 45.555 78.9067 44.9936 80.1133 43.8683C81.3173 42.7443 82.0947 41.347 82.4427 39.6776L81.9213 39.5043C81.5493 40.4083 80.9347 41.1563 80.0787 41.747C79.22 42.339 78.2467 42.6336 77.1573 42.6336C73.8893 42.6336 72.0693 40.6056 71.6987 36.5483H82.512C82.512 34.739 82.204 33.1563 81.5907 31.8003C80.976 30.4443 80.096 29.4003 78.948 28.671C77.8 27.9403 76.4613 27.575 74.932 27.575C73.4013 27.575 72.0627 27.9403 70.916 28.671C69.768 29.4003 68.8813 30.4443 68.256 31.8003C67.6307 33.1563 67.3173 34.739 67.3173 36.5483C67.3173 38.3096 67.6533 39.8696 68.3253 41.2256C68.9973 42.5816 69.948 43.643 71.176 44.4083ZM60.4667 40.5816V36.5483C60.4667 34.739 60.9773 33.343 61.9973 32.3563C63.0173 31.3723 64.4187 30.879 66.204 30.879V27.7136C64.8133 27.7136 63.6027 28.2243 62.5707 29.2443C61.5387 30.2643 60.8373 31.7016 60.4667 33.5563V27.8883H59.9453C59.5747 28.3523 59.0707 28.7976 58.4333 29.227C57.7947 29.6563 57.1693 30.0043 56.556 30.2696C55.9413 30.5376 55.4827 30.6696 55.1827 30.6696V31.1923C55.6227 31.1923 55.9 31.3776 56.016 31.7483C56.132 32.119 56.1907 32.595 56.1907 33.175V40.5816C56.1907 43.3416 55.5413 44.7203 54.2427 44.7203V45.2776H62.4493V44.7203C61.128 44.7203 60.4667 43.3416 60.4667 40.5816ZM48.0187 38.5643C48.0187 40.8136 47.764 42.443 47.2547 43.451C46.744 44.4603 45.9333 44.9643 44.82 44.9643C43.6373 44.9643 42.78 44.2976 42.2467 42.9643C41.7133 41.631 41.448 39.4816 41.448 36.5123C41.448 33.8243 41.72 31.8523 42.264 30.6003C42.8093 29.3483 43.6613 28.723 44.82 28.723C46.9533 28.723 48.0187 30.6003 48.0187 34.3563V38.5643ZM50.2613 22.271C49.624 22.7003 48.9987 23.0483 48.384 23.315C47.7693 23.5816 47.312 23.715 47.0107 23.715V24.2363C47.4507 24.2363 47.7293 24.4216 47.8453 24.7923C47.9613 25.1643 48.0187 25.639 48.0187 26.219V30.3923C47.324 28.4683 45.8987 27.5056 43.7427 27.5056C42.5133 27.5056 41.3947 27.8763 40.3867 28.619C39.3787 29.3603 38.5787 30.415 37.988 31.783C37.396 33.151 37.1013 34.7283 37.1013 36.5123C37.1013 38.3443 37.4133 39.939 38.04 41.295C38.6653 42.651 39.564 43.695 40.7347 44.4256C41.9053 45.155 43.2667 45.5203 44.82 45.5203C47.3933 45.5203 49.2587 44.8656 50.4187 43.5563C51.5773 42.2456 52.2027 40.699 52.296 38.9123V20.9323H51.7747C51.4027 21.3963 50.8987 21.843 50.2613 22.271ZM24.392 30.6003C24.9373 29.3483 25.7893 28.723 26.948 28.723C29.08 28.723 30.1467 30.6003 30.1467 34.3563V38.5643C30.1467 40.8136 29.892 42.443 29.3827 43.451C28.872 44.4603 28.0613 44.9643 26.948 44.9643C25.7653 44.9643 24.908 44.2976 24.3747 42.9643C23.8413 41.631 23.576 39.4816 23.576 36.5123C23.576 33.8243 23.848 31.8523 24.392 30.6003ZM22.8627 44.4256C24.0333 45.155 25.3947 45.5203 26.948 45.5203C29.5213 45.5203 31.3867 44.8656 32.5467 43.5563C33.7053 42.2456 34.3307 40.699 34.424 38.9123V20.9323H33.9027C33.5307 21.3963 33.0267 21.843 32.3893 22.271C31.752 22.7003 31.1267 23.0483 30.512 23.315C29.8973 23.5816 29.44 23.715 29.1387 23.715V24.2363C29.5787 24.2363 29.8573 24.4216 29.9733 24.7923C30.0893 25.1643 30.1467 25.639 30.1467 26.219V30.3923C29.452 28.4683 28.0267 27.5056 25.8707 27.5056C24.6413 27.5056 23.5227 27.8763 22.5147 28.619C21.5067 29.3603 20.7067 30.415 20.116 31.783C19.524 33.151 19.2293 34.7283 19.2293 36.5123C19.2293 38.3443 19.5413 39.939 20.168 41.295C20.7933 42.651 21.692 43.695 22.8627 44.4256ZM11.7533 37.0696C11.7533 38.159 11.544 39.2896 11.128 40.4603C10.7107 41.631 10.136 42.611 9.40667 43.399C8.676 44.187 7.84667 44.5816 6.92 44.5816C6.06267 44.5816 5.408 44.2976 4.956 43.7296C4.504 43.1616 4.27733 42.4136 4.27733 41.487C4.27733 40.095 4.63066 38.9243 5.33733 37.9736C6.04533 37.023 6.96667 36.3163 8.10267 35.8523C9.23733 35.3883 10.4547 35.1456 11.7533 35.1216V37.0696ZM17.768 43.7123C17.536 43.967 17.2587 44.095 16.9347 44.095C16.54 44.095 16.296 43.863 16.204 43.399C16.1107 42.935 16.0653 42.263 16.0653 41.3816V33.383C16.0413 31.575 15.3813 30.1603 14.0827 29.1403C12.784 28.1203 11 27.6096 8.728 27.6096C6.572 27.6096 4.804 28.0336 3.42533 28.879C2.04667 29.7256 1.35734 30.891 1.35734 32.375L5.63333 33.8003C5.63333 32.131 5.83066 30.7696 6.22533 29.7136C6.61866 28.659 7.45333 28.131 8.728 28.131C9.67867 28.131 10.38 28.4496 10.832 29.0883C11.284 29.7256 11.5507 30.3976 11.632 31.1043C11.712 31.8123 11.7533 32.571 11.7533 33.383V34.6003C8.78533 34.623 6.08533 35.1043 3.652 36.043C1.21733 36.983 0 38.6576 0 41.0683C0 42.6923 0.568 43.8456 1.704 44.5296C2.84 45.2136 4.13867 45.555 5.59867 45.555C7.244 45.555 8.56533 45.0923 9.56266 44.1643C10.5587 43.2376 11.2893 42.055 11.7533 40.6163V41.3816C11.7533 42.031 11.8053 42.6336 11.9093 43.191C12.0147 43.747 12.3147 44.275 12.8133 44.7723C13.312 45.2723 14.0947 45.5203 15.1613 45.5203C16.3427 45.5203 17.2067 45.243 17.7507 44.6856C18.296 44.1296 18.6733 43.5736 18.8813 43.0163L18.2907 42.8776C18.1733 43.179 18 43.4576 17.768 43.7123ZM97.608 57.9336C97.592 57.779 97.5853 57.5403 97.5853 57.215C97.5853 55.6083 97.7627 54.4203 98.1173 53.647C98.4733 52.875 99.0293 52.4883 99.7853 52.4883C100.543 52.4883 101.095 52.9323 101.443 53.8203C101.789 54.7096 101.964 56.0803 101.964 57.9336H97.608ZM104.221 55.119C103.812 54.215 103.225 53.519 102.461 53.0336C101.697 52.547 100.805 52.303 99.7853 52.303C98.7667 52.303 97.8747 52.547 97.1107 53.0336C96.3453 53.519 95.7547 54.215 95.3373 55.119C94.9213 56.0216 94.712 57.0763 94.712 58.2816C94.712 59.455 94.936 60.4936 95.384 61.3976C95.832 62.3016 96.4653 63.0083 97.284 63.5176C98.1027 64.0283 99.052 64.283 100.133 64.283C101.399 64.283 102.435 63.9083 103.237 63.159C104.04 62.4096 104.557 61.479 104.789 60.367L104.441 60.251C104.195 60.8536 103.785 61.351 103.215 61.7456C102.643 62.139 101.995 62.3363 101.268 62.3363C99.0907 62.3363 97.8787 60.9843 97.6307 58.2816H104.836C104.836 57.0763 104.631 56.0216 104.221 55.119ZM92.1173 51.4923C92.1173 50.5496 92.2227 49.8083 92.4307 49.2683C92.6387 48.727 93.044 48.4563 93.6467 48.4563C94.1253 48.4563 94.512 48.635 94.8053 48.9896C94.62 48.8963 94.4267 48.851 94.2267 48.851C93.8707 48.851 93.5653 48.9816 93.3107 49.2443C93.056 49.507 92.9293 49.8083 92.9293 50.1483C92.9293 50.519 93.056 50.8323 93.3107 51.087C93.5653 51.3416 93.8707 51.4696 94.2267 51.4696C94.5653 51.4696 94.8707 51.3416 95.1413 51.087C95.4107 50.8323 95.5467 50.519 95.5467 50.1483C95.5467 49.5763 95.3267 49.0443 94.8867 48.5496C94.4467 48.055 93.716 47.8083 92.6973 47.8083C91.7707 47.8083 90.9667 48.1323 90.288 48.7816C89.608 49.4296 89.26 50.4723 89.2453 51.9096V52.5123H87.716V52.859H89.2453V60.9696C89.2453 61.8803 89.1413 62.5683 88.932 63.031C88.724 63.495 88.396 63.727 87.948 63.727V64.0976H93.4147V63.727C92.9667 63.727 92.6387 63.495 92.4307 63.031C92.2227 62.5683 92.1173 61.8803 92.1173 60.9696V52.859H94.4813V52.5123H92.1173V51.4923ZM82.5733 58.6283C82.5733 59.355 82.4347 60.1083 82.156 60.8883C81.8787 61.6683 81.496 62.3216 81.0093 62.8456C80.5227 63.371 79.9707 63.6336 79.3533 63.6336C78.7813 63.6336 78.3453 63.4443 78.044 63.0656C77.7427 62.6883 77.5933 62.1896 77.5933 61.571C77.5933 60.6443 77.828 59.8643 78.2987 59.231C78.7707 58.5976 79.384 58.127 80.1413 57.8176C80.8973 57.5096 81.708 57.347 82.5733 57.331V58.6283ZM86.5813 63.055C86.4267 63.2243 86.2413 63.3096 86.0253 63.3096C85.7627 63.3096 85.6 63.155 85.5387 62.8456C85.4773 62.5376 85.4453 62.0896 85.4453 61.5016V56.1723C85.4307 54.9683 84.9907 54.0256 84.1253 53.3456C83.26 52.6656 82.072 52.3256 80.5573 52.3256C79.1213 52.3256 77.944 52.6083 77.0253 53.1723C76.1067 53.7363 75.6467 54.5123 75.6467 55.5003L78.496 56.451C78.496 55.339 78.6267 54.431 78.8907 53.7283C79.152 53.0256 79.708 52.6736 80.5573 52.6736C81.1907 52.6736 81.6587 52.887 81.96 53.311C82.26 53.7363 82.4387 54.1843 82.492 54.655C82.5467 55.127 82.5733 55.6323 82.5733 56.1723V56.9843C80.596 56.999 78.7973 57.3203 77.176 57.9456C75.5547 58.571 74.7427 59.687 74.7427 61.2936C74.7427 62.375 75.1213 63.143 75.8787 63.599C76.6347 64.055 77.5 64.283 78.4733 64.283C79.5693 64.283 80.4493 63.9736 81.1147 63.3563C81.7773 62.7376 82.264 61.9496 82.5733 60.9923V61.5016C82.5733 61.935 82.608 62.3363 82.6773 62.707C82.7467 63.0776 82.948 63.4296 83.28 63.7616C83.612 64.0936 84.1333 64.259 84.844 64.259C85.632 64.259 86.2067 64.0736 86.5693 63.703C86.932 63.3323 87.184 62.9616 87.3227 62.591L86.928 62.499C86.8507 62.699 86.736 62.8843 86.5813 63.055ZM72.1027 61.7456C71.5307 62.139 70.8827 62.3363 70.1573 62.3363C68.8907 62.3363 67.96 61.8923 67.3653 61.0043C66.7707 60.1163 66.4733 58.8523 66.4733 57.215C66.4733 55.655 66.6507 54.5043 67.0067 53.763C67.3613 53.0216 67.9173 52.651 68.6747 52.651C69.3693 52.651 69.856 53.0176 70.1333 53.751C70.412 54.4856 70.5507 55.6163 70.5507 57.1456H73.4C73.4 56.1416 73.176 55.2736 72.728 54.539C72.28 53.8056 71.6933 53.2496 70.968 52.871C70.2413 52.4923 69.4773 52.303 68.6747 52.303C67.6547 52.303 66.7627 52.547 65.9987 53.0336C65.2347 53.519 64.6427 54.215 64.2267 55.119C63.8093 56.0216 63.6013 57.0763 63.6013 58.2816C63.6013 59.455 63.824 60.4936 64.2733 61.3976C64.72 62.3016 65.3533 63.0083 66.172 63.5176C66.9907 64.0283 67.94 64.283 69.0213 64.283C70.288 64.283 71.3227 63.9083 72.1267 63.159C72.9293 62.4096 73.4467 61.479 73.6787 60.367L73.3307 60.251C73.0827 60.8536 72.6733 61.351 72.1027 61.7456Z"
          fill="#FFFFFF"/>
</svg>
