<svg width="710" height="147" viewBox="0 0 710 147" fill="none" xmlns="http://www.w3.org/2000/svg">
<mask id="path-1-outside-1_6_69" maskUnits="userSpaceOnUse" x="-1" y="0.376343" width="711" height="147" fill="black">
<rect fill="white" x="-1" y="0.376343" width="711" height="147"/>
<path d="M137.508 143H171.42C171.972 143 172.42 142.552 172.42 142V117.458C172.42 116.642 171.495 116.169 170.834 116.648L136.921 141.19C136.136 141.758 136.538 143 137.508 143Z"/>
<path d="M137.508 143H171.42C171.972 143 172.42 142.552 172.42 142V117.458C172.42 116.642 171.495 116.169 170.834 116.648L136.921 141.19C136.136 141.758 136.538 143 137.508 143Z"/>
<path d="M40.8325 142.5H6.92004C6.36776 142.5 5.92004 142.052 5.92004 141.5V116.958C5.92004 116.142 6.84509 115.669 7.50631 116.148L41.4188 140.69C42.2043 141.258 41.8022 142.5 40.8325 142.5Z"/>
<path d="M165.904 30.918L92.6505 82.4315C91.199 83.4522 89.4677 84 87.6932 84C85.8899 84 84.1321 83.4343 82.6672 82.3826L8.0308 28.7975C7.29374 28.2683 6.63259 27.6407 6.06577 26.9322C5.30832 25.9854 4.72672 24.9107 4.42493 23.7363C3.43006 19.865 1.55695 10.5656 4.92 5.5C5.93059 3.97781 8.04543 3.79275 9.53916 4.84494L84.7843 57.8478C85.8487 58.5976 87.1188 59 88.4208 59C89.7218 59 90.991 58.5982 92.0549 57.8495L168.676 3.93121C170.144 2.89784 172.24 3.33809 172.92 5C175.09 10.3047 173.317 18.7309 172.393 22.3066C172.1 23.441 171.615 24.5076 171.013 25.5123C170.618 26.1698 170.173 26.7958 169.683 27.3849L169.498 27.6062C168.451 28.8633 167.242 29.9768 165.904 30.918Z"/>
<path d="M166.824 86.918L93.5705 138.431C92.119 139.452 90.3878 140 88.6133 140C86.81 140 85.0521 139.434 83.5873 138.383L8.95084 84.7975C8.21378 84.2683 7.55263 83.6407 6.98582 82.9322C6.22836 81.9854 5.64676 80.9107 5.34497 79.7363C4.3501 75.8649 2.477 66.5656 5.84004 61.5C6.85063 59.9778 8.96547 59.7928 10.4592 60.8449L85.7043 113.848C86.7687 114.598 88.0389 115 89.3409 115C90.6418 115 91.911 114.598 92.975 113.849L169.596 59.9312C171.064 58.8978 173.16 59.3381 173.84 61C176.01 66.3047 174.237 74.7309 173.313 78.3066C173.02 79.441 172.535 80.5076 171.933 81.5123C171.538 82.1698 171.094 82.7958 170.603 83.3849L170.418 83.6062C169.371 84.8633 168.162 85.9768 166.824 86.918Z"/>
<path d="M254.959 62.3402V75.0412H211.907V96.4845H250.505V108.526H211.907V130.134H256.278V143H198.216V62.3402H254.959Z"/>
<path d="M334.221 62.3402H347.747V143H333.067L287.376 84.1134V143H273.685V62.3402H287.376L334.221 122.546V62.3402Z"/>
<path d="M403.402 130.959C409.67 130.959 414.619 128.814 418.248 124.526C421.987 120.237 423.856 114.409 423.856 107.041V62.3402H437.547V107.536C437.547 118.973 434.413 127.88 428.145 134.258C421.877 140.636 413.629 143.825 403.402 143.825C393.176 143.825 384.928 140.636 378.66 134.258C372.392 127.88 369.258 118.973 369.258 107.536V62.3402H382.784V107.041C382.784 114.519 384.653 120.347 388.392 124.526C392.021 128.814 397.024 130.959 403.402 130.959Z"/>
<path d="M458.998 143V62.3402H472.688V130.134H509.472V143H458.998Z"/>
<path d="M524.31 62.3402H538.001V143H524.31V62.3402Z"/>
<path d="M590.763 74.7113V143H577.073V74.7113H552.66V62.3402H615.176V74.7113H590.763Z"/>
<path d="M641.473 124.691L633.39 143H618.875L654.504 62.3402H669.019L704.483 143H689.968L681.885 124.691H641.473ZM676.442 111.99L661.762 78.8351L647.081 111.99H676.442Z"/>
</mask>
<path d="M137.508 143H171.42C171.972 143 172.42 142.552 172.42 142V117.458C172.42 116.642 171.495 116.169 170.834 116.648L136.921 141.19C136.136 141.758 136.538 143 137.508 143Z" fill="#B48B7D"/>
<path d="M137.508 143H171.42C171.972 143 172.42 142.552 172.42 142V117.458C172.42 116.642 171.495 116.169 170.834 116.648L136.921 141.19C136.136 141.758 136.538 143 137.508 143Z" fill="#B48B7D"/>
<path d="M40.8325 142.5H6.92004C6.36776 142.5 5.92004 142.052 5.92004 141.5V116.958C5.92004 116.142 6.84509 115.669 7.50631 116.148L41.4188 140.69C42.2043 141.258 41.8022 142.5 40.8325 142.5Z" fill="#B48B7D"/>
<path d="M165.904 30.918L92.6505 82.4315C91.199 83.4522 89.4677 84 87.6932 84C85.8899 84 84.1321 83.4343 82.6672 82.3826L8.0308 28.7975C7.29374 28.2683 6.63259 27.6407 6.06577 26.9322C5.30832 25.9854 4.72672 24.9107 4.42493 23.7363C3.43006 19.865 1.55695 10.5656 4.92 5.5C5.93059 3.97781 8.04543 3.79275 9.53916 4.84494L84.7843 57.8478C85.8487 58.5976 87.1188 59 88.4208 59C89.7218 59 90.991 58.5982 92.0549 57.8495L168.676 3.93121C170.144 2.89784 172.24 3.33809 172.92 5C175.09 10.3047 173.317 18.7309 172.393 22.3066C172.1 23.441 171.615 24.5076 171.013 25.5123C170.618 26.1698 170.173 26.7958 169.683 27.3849L169.498 27.6062C168.451 28.8633 167.242 29.9768 165.904 30.918Z" fill="#DFEFCA"/>
<path d="M166.824 86.918L93.5705 138.431C92.119 139.452 90.3878 140 88.6133 140C86.81 140 85.0521 139.434 83.5873 138.383L8.95084 84.7975C8.21378 84.2683 7.55263 83.6407 6.98582 82.9322C6.22836 81.9854 5.64676 80.9107 5.34497 79.7363C4.3501 75.8649 2.477 66.5656 5.84004 61.5C6.85063 59.9778 8.96547 59.7928 10.4592 60.8449L85.7043 113.848C86.7687 114.598 88.0389 115 89.3409 115C90.6418 115 91.911 114.598 92.975 113.849L169.596 59.9312C171.064 58.8978 173.16 59.3381 173.84 61C176.01 66.3047 174.237 74.7309 173.313 78.3066C173.02 79.441 172.535 80.5076 171.933 81.5123C171.538 82.1698 171.094 82.7958 170.603 83.3849L170.418 83.6062C169.371 84.8633 168.162 85.9768 166.824 86.918Z" fill="#B48B7D"/>
<path d="M254.959 62.3402V75.0412H211.907V96.4845H250.505V108.526H211.907V130.134H256.278V143H198.216V62.3402H254.959Z" fill="#B48B7D"/>
<path d="M334.221 62.3402H347.747V143H333.067L287.376 84.1134V143H273.685V62.3402H287.376L334.221 122.546V62.3402Z" fill="#B48B7D"/>
<path d="M403.402 130.959C409.67 130.959 414.619 128.814 418.248 124.526C421.987 120.237 423.856 114.409 423.856 107.041V62.3402H437.547V107.536C437.547 118.973 434.413 127.88 428.145 134.258C421.877 140.636 413.629 143.825 403.402 143.825C393.176 143.825 384.928 140.636 378.66 134.258C372.392 127.88 369.258 118.973 369.258 107.536V62.3402H382.784V107.041C382.784 114.519 384.653 120.347 388.392 124.526C392.021 128.814 397.024 130.959 403.402 130.959Z" fill="#B48B7D"/>
<path d="M458.998 143V62.3402H472.688V130.134H509.472V143H458.998Z" fill="#DFEFCA"/>
<path d="M524.31 62.3402H538.001V143H524.31V62.3402Z" fill="#DFEFCA"/>
<path d="M590.763 74.7113V143H577.073V74.7113H552.66V62.3402H615.176V74.7113H590.763Z" fill="#DFEFCA"/>
<path d="M641.473 124.691L633.39 143H618.875L654.504 62.3402H669.019L704.483 143H689.968L681.885 124.691H641.473ZM676.442 111.99L661.762 78.8351L647.081 111.99H676.442Z" fill="#DFEFCA"/>
<path d="M137.508 143H171.42C171.972 143 172.42 142.552 172.42 142V117.458C172.42 116.642 171.495 116.169 170.834 116.648L136.921 141.19C136.136 141.758 136.538 143 137.508 143Z" stroke="#554348" stroke-width="6" mask="url(#path-1-outside-1_6_69)"/>
<path d="M137.508 143H171.42C171.972 143 172.42 142.552 172.42 142V117.458C172.42 116.642 171.495 116.169 170.834 116.648L136.921 141.19C136.136 141.758 136.538 143 137.508 143Z" stroke="#554348" stroke-width="6" mask="url(#path-1-outside-1_6_69)"/>
<path d="M40.8325 142.5H6.92004C6.36776 142.5 5.92004 142.052 5.92004 141.5V116.958C5.92004 116.142 6.84509 115.669 7.50631 116.148L41.4188 140.69C42.2043 141.258 41.8022 142.5 40.8325 142.5Z" stroke="#554348" stroke-width="6" mask="url(#path-1-outside-1_6_69)"/>
<path d="M165.904 30.918L92.6505 82.4315C91.199 83.4522 89.4677 84 87.6932 84C85.8899 84 84.1321 83.4343 82.6672 82.3826L8.0308 28.7975C7.29374 28.2683 6.63259 27.6407 6.06577 26.9322C5.30832 25.9854 4.72672 24.9107 4.42493 23.7363C3.43006 19.865 1.55695 10.5656 4.92 5.5C5.93059 3.97781 8.04543 3.79275 9.53916 4.84494L84.7843 57.8478C85.8487 58.5976 87.1188 59 88.4208 59C89.7218 59 90.991 58.5982 92.0549 57.8495L168.676 3.93121C170.144 2.89784 172.24 3.33809 172.92 5C175.09 10.3047 173.317 18.7309 172.393 22.3066C172.1 23.441 171.615 24.5076 171.013 25.5123C170.618 26.1698 170.173 26.7958 169.683 27.3849L169.498 27.6062C168.451 28.8633 167.242 29.9768 165.904 30.918Z" stroke="#554348" stroke-width="6" mask="url(#path-1-outside-1_6_69)"/>
<path d="M166.824 86.918L93.5705 138.431C92.119 139.452 90.3878 140 88.6133 140C86.81 140 85.0521 139.434 83.5873 138.383L8.95084 84.7975C8.21378 84.2683 7.55263 83.6407 6.98582 82.9322C6.22836 81.9854 5.64676 80.9107 5.34497 79.7363C4.3501 75.8649 2.477 66.5656 5.84004 61.5C6.85063 59.9778 8.96547 59.7928 10.4592 60.8449L85.7043 113.848C86.7687 114.598 88.0389 115 89.3409 115C90.6418 115 91.911 114.598 92.975 113.849L169.596 59.9312C171.064 58.8978 173.16 59.3381 173.84 61C176.01 66.3047 174.237 74.7309 173.313 78.3066C173.02 79.441 172.535 80.5076 171.933 81.5123C171.538 82.1698 171.094 82.7958 170.603 83.3849L170.418 83.6062C169.371 84.8633 168.162 85.9768 166.824 86.918Z" stroke="#554348" stroke-width="6" mask="url(#path-1-outside-1_6_69)"/>
<path d="M254.959 62.3402V75.0412H211.907V96.4845H250.505V108.526H211.907V130.134H256.278V143H198.216V62.3402H254.959Z" stroke="#554348" stroke-width="6" mask="url(#path-1-outside-1_6_69)"/>
<path d="M334.221 62.3402H347.747V143H333.067L287.376 84.1134V143H273.685V62.3402H287.376L334.221 122.546V62.3402Z" stroke="#554348" stroke-width="6" mask="url(#path-1-outside-1_6_69)"/>
<path d="M403.402 130.959C409.67 130.959 414.619 128.814 418.248 124.526C421.987 120.237 423.856 114.409 423.856 107.041V62.3402H437.547V107.536C437.547 118.973 434.413 127.88 428.145 134.258C421.877 140.636 413.629 143.825 403.402 143.825C393.176 143.825 384.928 140.636 378.66 134.258C372.392 127.88 369.258 118.973 369.258 107.536V62.3402H382.784V107.041C382.784 114.519 384.653 120.347 388.392 124.526C392.021 128.814 397.024 130.959 403.402 130.959Z" stroke="#554348" stroke-width="6" mask="url(#path-1-outside-1_6_69)"/>
<path d="M458.998 143V62.3402H472.688V130.134H509.472V143H458.998Z" stroke="#554348" stroke-width="6" mask="url(#path-1-outside-1_6_69)"/>
<path d="M524.31 62.3402H538.001V143H524.31V62.3402Z" stroke="#554348" stroke-width="6" mask="url(#path-1-outside-1_6_69)"/>
<path d="M590.763 74.7113V143H577.073V74.7113H552.66V62.3402H615.176V74.7113H590.763Z" stroke="#554348" stroke-width="6" mask="url(#path-1-outside-1_6_69)"/>
<path d="M641.473 124.691L633.39 143H618.875L654.504 62.3402H669.019L704.483 143H689.968L681.885 124.691H641.473ZM676.442 111.99L661.762 78.8351L647.081 111.99H676.442Z" stroke="#554348" stroke-width="6" mask="url(#path-1-outside-1_6_69)"/>
</svg>
